<?xml version="1.0" encoding="UTF-8" standalone="no"?>
<svg xmlns="http://www.w3.org/2000/svg" viewBox="0 0 800 600">
    <defs>
        <!-- Paper texture -->
        <pattern id="paper-texture" width="100" height="100" patternUnits="userSpaceOnUse">
            <rect width="100" height="100" fill="#fff"/>
            <circle cx="50" cy="50" r="40" fill="#f8f9fa" opacity="0.5"/>
        </pattern>
        
        <!-- Pen gradient -->
        <linearGradient id="pen-metallic" x1="0%" y1="0%" x2="100%" y2="0%">
            <stop offset="0%" style="stop-color:#2C3E50"/>
            <stop offset="100%" style="stop-color:#34495E"/>
        </linearGradient>
        
        <!-- Update skin tone gradient for more realism -->
        <linearGradient id="skin-tone" x1="0%" y1="0%" x2="100%" y2="100%">
            <stop offset="0%" style="stop-color:#FFDFC4"/>
            <stop offset="25%" style="stop-color:#FFE0BD"/>
            <stop offset="50%" style="stop-color:#FFD1AA"/>
            <stop offset="75%" style="stop-color:#FFC49A"/>
            <stop offset="100%" style="stop-color:#FFB583"/>
        </linearGradient>
        
        <!-- Add music symbol gradient -->
        <linearGradient id="music-symbol" x1="0%" y1="0%" x2="100%" y2="0%">
            <stop offset="0%" style="stop-color:#2C3E50"/>
            <stop offset="100%" style="stop-color:#34495E"/>
        </linearGradient>
        
        <!-- Add text style gradient -->
        <linearGradient id="text-style" x1="0%" y1="0%" x2="100%" y2="0%">
            <stop offset="0%" style="stop-color:#34495E"/>
            <stop offset="100%" style="stop-color:#2C3E50"/>
        </linearGradient>
        
        <!-- Add shadow gradient for depth -->
        <filter id="shadow">
            <feGaussianBlur in="SourceAlpha" stdDeviation="2"/>
            <feOffset dx="2" dy="2"/>
            <feComponentTransfer>
                <feFuncA type="linear" slope="0.3"/>
            </feComponentTransfer>
            <feMerge>
                <feMergeNode/>
                <feMergeNode in="SourceGraphic"/>
            </feMerge>
        </filter>
        
        <!-- Add animation path -->
        <path id="writing-motion" 
              d="M200,180 C250,175 300,185 350,180 S400,175 450,180" 
              fill="none" 
              stroke="none"/>
    </defs>

    <!-- Paper with staff lines - scaled up -->
    <g class="paper">
        <!-- Larger paper -->
        <rect x="100" y="100" 
              width="600" height="400" 
              fill="url(#paper-texture)" 
              stroke="#E5E5E5"/>
        
        <!-- Title text - repositioned -->
        <g class="song-title">
            <text x="400" y="150" 
                  text-anchor="middle" 
                  font-family="Arial" 
                  font-size="28" 
                  fill="url(#text-style)"
                  class="title-text">
                SONG TITLE
            </text>
            <!-- Underline - adjusted width -->
            <line x1="300" y1="156" 
                  x2="500" y2="156" 
                  stroke="url(#text-style)" 
                  stroke-width="2"/>
        </g>
        
        <!-- First staff (Treble) - repositioned -->
        <g class="staff treble-staff">
            <path d="M140 180 h520 M140 200 h520 M140 220 h520 M140 240 h520 M140 260 h520" 
                  stroke="#E5E5E5" stroke-width="1.5"/>
            
            <!-- Treble Clef - scaled and repositioned -->
            <path d="M170 260 C170,240 164,228 164,216 C164,210 166,206 172,206 
                     C176,206 180,210 180,214 C180,220 176,222 176,234 C176,250 
                     192,258 192,282 C192,308 172,322 156,322 C130,322 124,302 
                     124,288 C124,260 146,256 146,256"
                  fill="none" stroke="url(#music-symbol)" stroke-width="3" class="music-symbol"/>
        </g>
        
        <!-- Second staff (Bass) - repositioned -->
        <g class="staff bass-staff">
            <path d="M140 320 h520 M140 340 h520 M140 360 h520 M140 380 h520 M140 400 h520" 
                  stroke="#E5E5E5" stroke-width="1.5"/>
            
            <!-- Bass Clef - scaled and repositioned -->
            <path d="M170 360 C178,360 186,368 186,376 C186,384 178,392 170,392 
                     C162,392 154,384 154,376 C154,368 162,360 170,360 M190 366 h24 M190 374 h24"
                  fill="none" stroke="url(#music-symbol)" stroke-width="3" class="music-symbol"/>
        </g>
    </g>

    <!-- Writing arm and pen animation -->
    <g class="writing-arm-container">
        <animateMotion
            dur="4s"
            repeatCount="indefinite"
            path="M0,0 C50,-5 100,5 150,0 S200,-5 250,0"
            rotate="auto">
        </animateMotion>
        
        <!-- Writing arm - adjusted position -->
        <g class="writing-arm" filter="url(#shadow)">
            <!-- Forearm -->
            <path d="M380 160 
                     C360 150, 340 140, 320 150 
                     S300 155, 290 152" 
                  stroke="url(#skin-tone)" 
                  stroke-width="28" 
                  stroke-linecap="round"
                  fill="none"/>
            
            <!-- Hand details -->
            <path d="M295 152 
                     C290 150, 285 150, 280 152 
                     C275 154, 272 156, 270 160"
                  stroke="url(#skin-tone)" 
                  stroke-width="20" 
                  stroke-linecap="round"
                  fill="none"/>
            
            <!-- Thumb -->
            <path d="M285 145 
                     C282 142, 280 140, 278 142"
                  stroke="url(#skin-tone)" 
                  stroke-width="12" 
                  stroke-linecap="round"
                  fill="none"/>
        </g>

        <!-- Enhanced pen - adjusted position -->
        <g class="pen" filter="url(#shadow)">
            <!-- Pen body -->
            <path d="M275 155 L245 185" 
                  stroke="url(#pen-metallic)" 
                  stroke-width="8" 
                  stroke-linecap="round"/>
            
            <!-- Pen tip -->
            <path d="M245 185 L242 188" 
                  stroke="#000" 
                  stroke-width="2" 
                  stroke-linecap="round"/>
            
            <!-- Pen grip -->
            <path d="M270 160 L260 170" 
                  stroke="#1a1a1a" 
                  stroke-width="9" 
                  stroke-linecap="round"
                  opacity="0.3"/>
        </g>
    </g>

    <!-- Writing animation path -->
    <path class="writing-line" 
          d="M100 120 q10 -20 20 0 t20 0 t20 0" 
          stroke="#6b7a8f" 
          stroke-width="2"
          fill="none"/>
</svg>